# OBJ generated by ONSHAPE BY PTC INC, 1.204 Units = meters
g Part 1
v 0.0204447 0.0025 0.0525 
v 0.0204447 -0.0025 0.0525 
v 0.0302273 -0.0025 0.0525 
v 0.0302273 0.0025 0.0525 
v 0.0302273 0.0125 0.0425 
v 0.0165937 0.0125 0.0425 
v 0.0169963 0.0124452 0.0435453 
v 0.0302273 0.0124452 0.0435453 
v 0.0173944 0.0122815 0.0445791 
v 0.0302273 0.0122815 0.0445791 
v 0.0177837 0.0120106 0.0455902 
v 0.0302273 0.0120106 0.0455902 
v 0.01816 0.0116355 0.0465674 
v 0.0302273 0.0116355 0.0465674 
v 0.0185192 0.0111603 0.0475 
v 0.0302273 0.0111603 0.0475 
v 0.0188572 0.0105902 0.0483779 
v 0.0302273 0.0105902 0.0483779 
v 0.0191705 0.00993145 0.0491913 
v 0.0302273 0.00993145 0.0491913 
v 0.0194555 0.00919131 0.0499314 
v 0.0302273 0.00919131 0.0499314 
v 0.0197092 0.00837785 0.0505902 
v 0.0302273 0.00837785 0.0505902 
v 0.0199287 0.0075 0.0511603 
v 0.0302273 0.0075 0.0511603 
v 0.0201117 0.00656737 0.0516355 
v 0.0302273 0.00656737 0.0516355 
v 0.0201889 0.00608368 0.0518358 
v 0.0202562 0.00559017 0.0520106 
v 0.0302273 0.00559017 0.0520106 
v 0.0203134 0.00508819 0.0521593 
v 0.0203605 0.00457912 0.0522815 
v 0.0302273 0.00457912 0.0522815 
v 0.0203972 0.00406434 0.0523769 
v 0.0204236 0.00354528 0.0524452 
v 0.0302273 0.00354528 0.0524452 
v 0.0204394 0.00302336 0.0524863 
v 0.0302273 0.0125 0 
v 0.000227269 0.0125 -3.46945e-18 
v 0.0302273 -0.00837785 0.0505902 
v 0.0302273 -0.0120106 0.0455902 
v 0.0302273 -0.0122815 0.0445791 
v 0.0302273 -0.0111603 0.0475 
v 0.0302273 -0.0116355 0.0465674 
v 0.0302273 -0.00919131 0.0499314 
v 0.0302273 -0.00993145 0.0491913 
v 0.0302273 -0.0124452 0.0435453 
v 0.0302273 -0.00559017 0.0520106 
v 0.0302273 -0.00656737 0.0516355 
v 0.0302273 -0.0105902 0.0483779 
v 0.0302273 -0.0075 0.0511603 
v 0.0302273 -0.0125 0.0425 
v 0.0302273 -0.00354528 0.0524452 
v 0.0302273 -0.00457912 0.0522815 
v 0.0302273 -0.0125 0 
v 0.0201117 -0.00656737 0.0516355 
v 0.0194555 -0.00919131 0.0499314 
v 0.0197092 -0.00837785 0.0505902 
v 0.0191705 -0.00993145 0.0491913 
v 0.0188572 -0.0105902 0.0483779 
v 0.0185192 -0.0111603 0.0475 
v 0.0165937 -0.0125 0.0425 
v 0.0204236 -0.00354528 0.0524452 
v 0.0204394 -0.00302336 0.0524863 
v 0.01816 -0.0116355 0.0465674 
v 0.0203972 -0.00406434 0.0523769 
v 0.0177837 -0.0120106 0.0455902 
v 0.0203605 -0.00457912 0.0522815 
v 0.0173944 -0.0122815 0.0445791 
v 0.0203134 -0.00508819 0.0521593 
v 0.0169963 -0.0124452 0.0435453 
v 0.0202562 -0.00559017 0.0520106 
v 0.0201889 -0.00608368 0.0518358 
v 0.0199287 -0.0075 0.0511603 
v 0.000227269 -0.0125 -3.46945e-18 
vn 0 0 1 
vn -1.77327e-16 1 1.22465e-16 
vn -3.46945e-16 0.994522 0.104528 
vn 0 0.978148 0.207912 
vn 0 0.951057 0.309017 
vn 0 0.913545 0.406737 
vn 0 0.866025 0.5 
vn 0 0.809017 0.587785 
vn 0 0.743145 0.669131 
vn 0 0.669131 0.743145 
vn 0 0.587785 0.809017 
vn 0 0.5 0.866025 
vn 0 0.406737 0.913545 
vn 0 0.358368 0.93358 
vn 0 0.309017 0.951057 
vn 0 0.258819 0.965926 
vn 0 0.207912 0.978148 
vn 0 0.156434 0.987688 
vn 0 0.104528 0.994522 
vn 8.96073e-32 -5.05322e-16 1 
vn 0 0.052336 0.99863 
vn -1.77327e-16 1 -1.17186e-32 
vn 1 2.77556e-16 6.60847e-17 
vn -0.933196 -2.59014e-16 0.359367 
vn 0 0 -1 
vn 1.77327e-16 -1 6.60847e-17 
vn 5.02327e-32 -2.83277e-16 1 
vn 0 -0.052336 0.99863 
vn 1.85357e-17 -0.104528 0.994522 
vn 3.68684e-17 -0.207912 0.978148 
vn 0 -0.156434 0.987688 
vn 5.47971e-17 -0.309017 0.951057 
vn 0 -0.207912 0.978148 
vn 0 -0.258819 0.965926 
vn 7.21255e-17 -0.406737 0.913545 
vn 0 -0.309017 0.951057 
vn 0 -0.358368 0.93358 
vn 8.86636e-17 -0.5 0.866025 
vn 0 -0.406737 0.913545 
vn 1.0423e-16 -0.587785 0.809017 
vn 0 -0.5 0.866025 
vn 1.18655e-16 -0.669131 0.743145 
vn 0 -0.587785 0.809017 
vn 1.3178e-16 -0.743145 0.669131 
vn 0 -0.669131 0.743145 
vn 1.43461e-16 -0.809017 0.587785 
vn 0 -0.743145 0.669131 
vn 1.5357e-16 -0.866025 0.5 
vn 0 -0.809017 0.587785 
vn 1.61997e-16 -0.913545 0.406737 
vn 0 -0.866025 0.5 
vn 1.68648e-16 -0.951057 0.309017 
vn 0 -0.913545 0.406737 
vn 1.73452e-16 -0.978148 0.207912 
vn 0 -0.951057 0.309017 
vn 1.76356e-16 -0.994522 0.104528 
vn 0 -0.978148 0.207912 
vn 1.77327e-16 -1 0 
vn 3.46945e-16 -0.994522 0.104528 
usemtl 0.615686_0.811765_0.929412_0.000000_0.000000
o mesh0
f 1//1 2//1 3//1 
f 3//1 4//1 1//1 
o mesh1
f 5//2 6//2 7//3 
f 8//3 7//3 9//4 
f 10//4 9//4 11//5 
f 12//5 11//5 13//6 
f 14//6 13//6 15//7 
f 16//7 15//7 17//8 
f 18//8 17//8 19//9 
f 20//9 19//9 21//10 
f 22//10 21//10 23//11 
f 24//11 23//11 25//12 
f 26//12 25//12 27//13 
f 28//13 29//14 30//15 
f 28//13 27//13 29//14 
f 31//15 32//16 33//17 
f 31//15 30//15 32//16 
f 34//17 35//18 36//19 
f 34//17 33//17 35//18 
f 4//20 37//19 38//21 
f 37//19 36//19 38//21 
f 38//21 1//20 4//20 
f 36//19 37//19 34//17 
f 33//17 34//17 31//15 
f 30//15 31//15 28//13 
f 27//13 28//13 26//12 
f 25//12 26//12 24//11 
f 23//11 24//11 22//10 
f 21//10 22//10 20//9 
f 19//9 20//9 18//8 
f 17//8 18//8 16//7 
f 15//7 16//7 14//6 
f 13//6 14//6 12//5 
f 11//5 12//5 10//4 
f 9//4 10//4 8//3 
f 7//3 8//3 5//2 
o mesh2
f 39//22 40//22 6//22 
f 6//22 5//22 39//22 
o mesh3
f 41//23 42//23 43//23 
f 41//23 44//23 45//23 
f 44//23 46//23 47//23 
f 45//23 42//23 41//23 
f 44//23 41//23 46//23 
f 48//23 49//23 50//23 
f 47//23 51//23 44//23 
f 50//23 52//23 48//23 
f 5//23 16//23 18//23 
f 5//23 10//23 12//23 
f 52//23 41//23 48//23 
f 53//23 54//23 55//23 
f 5//23 24//23 26//23 
f 5//23 20//23 22//23 
f 5//23 14//23 16//23 
f 5//23 8//23 10//23 
f 43//23 48//23 41//23 
f 53//23 3//23 54//23 
f 5//23 34//23 37//23 
f 5//23 28//23 31//23 
f 22//23 24//23 5//23 
f 12//23 14//23 5//23 
f 55//23 49//23 53//23 
f 53//23 5//23 4//23 
f 31//23 34//23 5//23 
f 18//23 20//23 5//23 
f 4//23 3//23 53//23 
f 26//23 28//23 5//23 
f 37//23 4//23 5//23 
f 53//23 56//23 39//23 
f 39//23 5//23 53//23 
f 48//23 53//23 49//23 
o mesh4
f 57//24 58//24 59//24 
f 27//24 25//24 23//24 
f 57//24 60//24 58//24 
f 23//24 21//24 27//24 
f 57//24 61//24 60//24 
f 21//24 19//24 27//24 
f 57//24 62//24 61//24 
f 19//24 17//24 27//24 
f 63//24 64//24 65//24 
f 57//24 66//24 62//24 
f 17//24 15//24 27//24 
f 6//24 1//24 38//24 
f 63//24 67//24 64//24 
f 57//24 68//24 66//24 
f 15//24 13//24 27//24 
f 38//24 36//24 6//24 
f 63//24 69//24 67//24 
f 57//24 70//24 68//24 
f 13//24 11//24 27//24 
f 36//24 35//24 6//24 
f 63//24 71//24 69//24 
f 57//24 72//24 70//24 
f 11//24 9//24 27//24 
f 35//24 33//24 6//24 
f 63//24 73//24 71//24 
f 57//24 63//24 72//24 
f 9//24 7//24 27//24 
f 33//24 32//24 6//24 
f 63//24 74//24 73//24 
f 59//24 75//24 57//24 
f 6//24 29//24 27//24 
f 32//24 30//24 6//24 
f 57//24 74//24 63//24 
f 30//24 29//24 6//24 
f 76//24 2//24 1//24 
f 2//24 76//24 63//24 
f 7//24 6//24 27//24 
f 65//24 2//24 63//24 
f 1//24 40//24 76//24 
f 6//24 40//24 1//24 
o mesh5
f 39//25 56//25 76//25 
f 76//25 40//25 39//25 
o mesh6
f 56//26 53//26 63//26 
f 63//26 76//26 56//26 
o mesh7
f 3//27 2//27 65//28 
f 65//28 54//29 3//27 
f 55//30 54//29 64//29 
f 64//29 67//31 55//30 
f 49//32 55//30 69//33 
f 69//33 71//34 49//32 
f 50//35 49//32 73//36 
f 73//36 74//37 50//35 
f 52//38 50//35 57//39 
f 41//40 52//38 75//41 
f 46//42 41//40 59//43 
f 47//44 46//42 58//45 
f 51//46 47//44 60//47 
f 44//48 51//46 61//49 
f 45//50 44//48 62//51 
f 42//52 45//50 66//53 
f 43//54 42//52 68//55 
f 48//56 43//54 70//57 
f 53//58 48//56 72//59 
f 72//59 63//58 53//58 
f 70//57 72//59 48//56 
f 68//55 70//57 43//54 
f 66//53 68//55 42//52 
f 62//51 66//53 45//50 
f 61//49 62//51 44//48 
f 60//47 61//49 51//46 
f 58//45 60//47 47//44 
f 59//43 58//45 46//42 
f 75//41 59//43 41//40 
f 57//39 75//41 52//38 
f 74//37 57//39 50//35 
f 71//34 73//36 49//32 
f 67//31 69//33 55//30 
f 65//28 64//29 54//29 
